8_ID_stride6.mot
nRows=15
nColumns=38

name 8_ID_stride6.mot
datacolumns 38
datarows 15
range 3.4350000000 3.5050000000
endheader
time	pelvis_tilt_moment	pelvis_list_moment	pelvis_rotation_moment	pelvis_tx_force	pelvis_ty_force	pelvis_tz_force	hip_flexion_r_moment	hip_adduction_r_moment	hip_rotation_r_moment	knee_angle_r_moment	ankle_angle_r_moment	subtalar_angle_r_moment	mtp_angle_r_moment	hip_flexion_l_moment	hip_adduction_l_moment	hip_rotation_l_moment	knee_angle_l_moment	ankle_angle_l_moment	subtalar_angle_l_moment	mtp_angle_l_moment	lumbar_extension_moment	lumbar_bending_moment	lumbar_rotation_moment	arm_flex_r_moment	arm_add_r_moment	arm_rot_r_moment	elbow_flex_r_moment	pro_sup_r_moment	wrist_flex_r_moment	wrist_dev_r_moment	arm_flex_l_moment	arm_add_l_moment	arm_rot_l_moment	elbow_flex_l_moment	pro_sup_l_moment	wrist_flex_l_moment	wrist_dev_l_moment
        3.4350000000	       69.2113646791	      -74.1415316627	       47.1032913636	       96.5959838043	      -19.0632773920	      -15.7174384256	      -24.8501732946	      -14.3951586507	        6.5765057032	       -2.2297862649	        2.4794729014	       -0.8342871711	        0.1266109512	      -14.1940287687	        8.6423165077	      -23.5008137738	      -19.5902934154	     -145.8148055899	       21.7872946825	       -0.0569251260	       -7.3432885393	      -11.9973477771	       44.7472150621	        8.3846165930	        5.5582245304	        4.4753651515	        4.1418347397	        0.0666505997	        0.5655205005	       -0.2181737605	       -1.2746940459	       -2.1922108892	       -3.6069031969	        3.1968378745	       -0.1981890608	       -0.3645813064	       -0.3576200832	
        3.4400000000	       65.7193794117	      -65.0900760905	       38.0328784110	       47.1240168003	       -8.3507365519	      -25.2769982619	      -24.4730031706	      -14.3316787899	        5.4068274280	       -2.3999887257	        2.6048069399	       -0.8083189434	        0.1352911888	       -4.2033055284	        6.6723620750	      -16.7906533287	      -19.2609263716	     -128.2103152312	       20.6708319989	       -0.0657761572	      -11.5066057662	      -18.2527405325	       43.5961922630	        7.7523175501	        5.6732815379	        4.5348730347	        3.6362099296	        0.0783595667	        0.5561279402	       -0.1734693591	       -1.7319051941	       -2.8145363893	       -3.7704476113	        2.6569748146	       -0.1912768235	       -0.3843274296	       -0.3128878531	
        3.4450000000	       49.7925795769	      -49.2322436056	       27.8781767418	      -15.5130359249	       -7.4119575927	      -32.7280858081	      -23.1173444126	      -11.9008127626	        2.9944107149	       -2.2997434958	        2.7371651707	       -0.7212781903	        0.1458825450	        6.7509469825	       -1.6049204144	      -10.3323923970	      -18.1000384292	     -110.8005361270	       18.7719190182	       -0.0737585554	      -11.8539378898	      -19.8399175228	       41.9673330519	        6.7656728617	        5.6094953282	        4.5140311194	        2.9975922089	        0.0895660700	        0.5386095709	       -0.1193164725	       -2.3546616592	       -3.3413650389	       -3.7795882151	        2.0656279445	       -0.1789413981	       -0.3918248025	       -0.2600924570	
        3.4500000000	       28.4885106668	      -29.4617493761	       20.4178953267	      -62.0584050120	       -8.4261669572	      -34.7434313681	      -21.6439481430	       -8.4705436667	        0.2822707388	       -2.2514821101	        2.8567422565	       -0.6224415306	        0.1560726946	       17.3760159093	       -9.2298626230	       -6.7404213440	      -16.3316511586	      -94.5131599561	       16.5831506979	       -0.0762717282	      -11.5642045279	      -19.7278631549	       39.9906346004	        5.5504155119	        5.3881985702	        4.4290875459	        2.2848013194	        0.0982391338	        0.5109638870	       -0.0613342928	       -3.0941873012	       -3.5078206237	       -3.7485352444	        1.4374873006	       -0.1612728611	       -0.3918127587	       -0.2006955640	
        3.4550000000	       12.2426579225	       -8.6480827445	       17.1180979624	      -80.7059584654	      -20.1691944410	      -30.6026785628	      -20.9326056451	       -6.5870863188	       -1.7110292401	       -2.4572163639	        2.9483865381	       -0.5698602932	        0.1638530412	       27.0693264117	      -11.7539379736	       -5.7428985368	      -14.1022648125	      -79.7445120894	       14.5402924604	       -0.0736929817	       -8.5954291451	      -15.4630892595	       37.7800105698	        4.2463335735	        4.7370997665	        4.1263129755	        1.5451789765	        0.1032405863	        0.4680851823	       -0.0041686459	       -3.9078717106	       -3.3980710462	       -3.4377893364	        0.7804845096	       -0.1378099498	       -0.3727569103	       -0.1351409242	
        3.4600000000	        4.1903706472	       12.7649163802	       16.9210726504	      -63.6073426910	      -39.6602648775	      -23.8623401498	      -21.2811309064	       -6.6392920510	       -2.5880418656	       -3.0221750608	        3.0044556260	       -0.5814990003	        0.1680032648	       37.7080443933	       -7.2481236021	       -6.0057490192	       -9.7851912151	      -65.2231644867	       12.7252935493	       -0.0599981418	       -5.6225364932	      -10.2479114012	       35.3840174511	        3.0329585549	        3.8172481959	        3.6704990311	        0.8443828910	        0.1045103711	        0.4134052331	        0.0469665159	       -4.6718043535	       -2.8820609525	       -2.9795582069	        0.1223580580	       -0.1111657487	       -0.3411492447	       -0.0676023701	
        3.4650000000	        4.2115724322	       34.5297884590	       17.0263598690	      -25.8240372014	      -67.8500053328	      -19.4129075483	      -22.6032953964	       -8.1428784999	       -2.3855826516	       -3.8163192792	        3.0047849624	       -0.6461082850	        0.1672322215	       50.3013861409	        0.0602519922	       -5.0409103411	       -2.9939877731	      -49.8827536347	       10.6275345501	       -0.0352099393	       -3.3747452448	       -5.6701197599	       32.7743413712	        1.9954776063	        2.7643032548	        3.1169508075	        0.2147063861	        0.1028145163	        0.3518272422	        0.0900691742	       -5.3030517642	       -2.1837300676	       -2.4350858482	       -0.5148084134	       -0.0837165698	       -0.3023592479	       -0.0016915946	
        3.4700000000	        5.9162869174	       51.7170914486	       16.1737977832	       14.4769007270	     -103.8217892580	      -18.7343163443	      -24.7877453535	       -9.4111667179	       -1.8303455174	       -4.7659858291	        2.9727162790	       -0.7340751399	        0.1634699132	       60.7389838990	        6.0607715297	       -2.5897460697	        3.3342260004	      -35.7167430132	        8.2023853780	        0.0019450634	       -2.9401247086	       -3.9488594344	       29.8854604444	        1.1568875575	        1.7382892303	        2.5357346247	       -0.3217222461	        0.0994676098	        0.2888772789	        0.1242313164	       -5.7412160264	       -1.4554247836	       -1.8786223357	       -1.1018175733	       -0.0577193420	       -0.2612622145	        0.0588033225	
        3.4750000000	        8.8268594289	       59.9908149490	       14.1040699560	       44.0849108908	     -142.0235888476	      -18.4227178842	      -27.7327967223	       -9.9130114947	       -1.3863754751	       -5.8857482419	        2.8759670177	       -0.8109227048	        0.1556646180	       65.8059358341	       10.2679967374	        0.4552283168	        6.5392466853	      -24.5071981378	        5.8828895836	        0.0504325776	       -2.8768421584	       -3.4393359991	       26.7188379975	        0.4618007523	        0.8032395580	        1.9626146557	       -0.7680747818	        0.0947323751	        0.2272067064	        0.1504419269	       -5.9910254885	       -0.7700278263	       -1.3409366959	       -1.6200792396	       -0.0338669989	       -0.2197125592	        0.1124150499	
        3.4800000000	        9.8623065472	       55.7882112115	       12.4762902719	       56.6937238816	     -175.0218266511	      -15.7792352049	      -31.5027680314	       -7.5460394683	       -1.3860145195	       -7.3052159747	        2.7284362939	       -0.8532781836	        0.1456228035	       61.4120424797	       12.6588470634	        2.3732187890	        3.9443606003	      -17.8820744952	        4.2127152385	        0.1095790389	       -4.1022571615	       -5.4803396921	       23.2059588487	       -0.1057263876	        0.0235946419	        1.4301599934	       -1.1089553256	        0.0886787981	        0.1694155904	        0.1681138343	       -6.0646578598	       -0.1883813229	       -0.8492530034	       -2.0375370528	       -0.0131366721	       -0.1788403755	        0.1564116741	
        3.4850000000	        9.7973945863	       38.6129697464	       13.6035191847	       54.1037721732	     -189.5470405692	       -6.9933533942	      -35.7874285412	       -2.6550386998	       -1.9020930874	       -9.2047436212	        2.5565107352	       -0.8502186078	        0.1350646435	       47.6773913505	       17.3234117411	        1.8490552158	       -4.5508367835	      -15.6954669186	        3.8722814158	        0.1752519953	       -5.7028438187	       -8.2383291384	       19.3983341168	       -0.5719085997	       -0.6341422513	        0.9266543702	       -1.3330904499	        0.0803110344	        0.1149513146	        0.1750245103	       -5.9450271655	        0.3340694865	       -0.3850457249	       -2.3242345343	        0.0045743367	       -0.1365947231	        0.1890472843	
        3.4900000000	        5.1834054003	       20.0326078165	       13.5455518169	       42.8711846140	     -168.9818823468	       -7.2514433412	      -40.4042045303	        4.2014723189	       -2.7242361056	      -11.7188534686	        2.3858614185	       -0.8291952280	        0.1253587162	       37.7298914335	       18.4707092587	        2.0080057264	       -7.3822754928	       -9.3390131319	        2.7519291867	        0.2429360798	       -7.5450784366	      -10.6580141490	       15.4183037118	       -0.9176175217	       -1.2231562058	        0.4329609248	       -1.4001631789	        0.0688861048	        0.0628679427	        0.1714834063	       -5.6458411479	        0.8581639803	        0.0701717245	       -2.4346640782	        0.0193991021	       -0.0916888254	        0.2091438520	
        3.4950000000	       -4.4911897481	        2.3546720301	       12.5006492053	       29.7676859144	     -120.2411572591	       -7.6596678245	      -45.1956235709	       11.9832379952	       -3.4229693200	      -14.8906878718	        2.2382237119	       -0.7976469053	        0.1174336812	       31.4007512706	       18.6819232035	        3.4129350748	       -7.4167169502	       -0.0559865720	        0.8426039370	        0.3075429111	       -9.6054118920	      -11.4518677716	       11.4686772852	       -1.0939716703	       -1.7740911285	       -0.0556783715	       -1.3808747849	        0.0544841130	        0.0131684054	        0.1584748719	       -5.1566316288	        1.4089500412	        0.5163432412	       -2.4256471410	        0.0314783586	       -0.0449966084	        0.2154401204	
        3.5000000000	       -9.3682887812	      -16.9755896996	       11.9733173581	       26.3391996390	      -74.3436658233	       -4.4638918358	      -49.7047855239	       19.3905382291	       -3.6324239450	      -18.6015391820	        2.1503565467	       -0.7858838399	        0.1124911414	       24.6393455399	       19.6449506907	        5.4595014319	       -7.6385041885	        3.8211255399	       -0.0237005296	        0.3619960050	      -11.8962705595	      -11.3526478567	        7.9136553736	       -1.1257791880	       -2.2751671576	       -0.5144513390	       -1.2598263616	        0.0386392906	       -0.0317744681	        0.1378301713	       -4.5230646005	        1.9580618261	        0.9210005877	       -2.3042689578	        0.0405579039	       -0.0008873225	        0.2154401970	
        3.5050000000	       -9.7499722227	      -39.9806427723	       15.2672506536	       36.4402472693	      -41.0899547393	        7.2607417198	      -53.5709665344	       25.7530996626	       -3.2260550914	      -22.5961499532	        2.1136895795	       -0.7956058427	        0.1099626152	       13.6434655911	       27.5918682962	        6.2705157297	      -13.3744482471	        3.2438986296	        0.2941204689	        0.4044787010	      -14.3762695881	       -9.3989687552	        4.9314434398	       -0.9901919221	       -2.7108669629	       -0.9207039397	       -1.1039482235	        0.0233093951	       -0.0705204058	        0.1152454834	       -3.8149712218	        2.4606883802	        1.2616856186	       -2.1247617333	        0.0471555269	        0.0372137363	        0.2072483557	
